<?xml version="1.0" encoding="UTF-8"?>
<!DOCTYPE svg PUBLIC "-//W3C//DTD SVG 1.1//EN" "http://www.w3.org/Graphics/SVG/1.1/DTD/svg11.dtd">
<svg xmlns="http://www.w3.org/2000/svg" version="1.1" width="200px" height="200px" style="shape-rendering:geometricPrecision; text-rendering:geometricPrecision; image-rendering:optimizeQuality; fill-rule:evenodd; clip-rule:evenodd" xmlns:xlink="http://www.w3.org/1999/xlink">
<g><path style="opacity:1" fill="#356c73" d="M -0.5,-0.5 C 66.1667,-0.5 132.833,-0.5 199.5,-0.5C 199.5,66.1667 199.5,132.833 199.5,199.5C 132.833,199.5 66.1667,199.5 -0.5,199.5C -0.5,132.833 -0.5,66.1667 -0.5,-0.5 Z"/></g>
<g><path style="opacity:1" fill="#f4d773" d="M 30.5,80.5 C 30.8333,81.5 31.5,82.1667 32.5,82.5C 33.038,84.1172 33.3713,85.7839 33.5,87.5C 27.8333,87.5 22.1667,87.5 16.5,87.5C 18.551,82.4051 21.3844,77.7385 25,73.5C 27.2968,75.4044 29.1301,77.7378 30.5,80.5 Z"/></g>
<g><path style="opacity:1" fill="#e89b50" d="M 18.5,74.5 C 19.9346,76.9715 19.1013,78.6382 16,79.5C 15.7506,77.332 16.5839,75.6653 18.5,74.5 Z"/></g>
<g><path style="opacity:1" fill="#a69378" d="M 24.5,77.5 C 25.5862,77.62 26.2528,78.2867 26.5,79.5C 26.1667,80.1667 25.8333,80.8333 25.5,81.5C 24.5713,80.3112 24.238,78.9778 24.5,77.5 Z"/></g>
<g><path style="opacity:1" fill="#fddcbd" d="M 66.5,95.5 C 66.5,95.8333 66.5,96.1667 66.5,96.5C 62.6273,98.4302 58.294,99.0969 53.5,98.5C 53.5,91.5 53.5,84.5 53.5,77.5C 54.8333,77.5 56.1667,77.5 57.5,77.5C 57.5,83.5 57.5,89.5 57.5,95.5C 60.5,95.5 63.5,95.5 66.5,95.5 Z"/></g>
<g><path style="opacity:1" fill="#5fcdda" d="M 32.5,82.5 C 31.5,82.1667 30.8333,81.5 30.5,80.5C 34.8333,80.5 39.1667,80.5 43.5,80.5C 43.5198,78.857 42.8532,77.5237 41.5,76.5C 42.6507,75.269 43.8173,75.269 45,76.5C 45.7429,78.4406 45.5762,80.2739 44.5,82C 40.5138,82.4988 36.5138,82.6655 32.5,82.5 Z"/></g>
<g><path style="opacity:1" fill="#e9d1b6" d="M 119.5,80.5 C 121.167,80.5 122.833,80.5 124.5,80.5C 124.5,82.1667 124.5,83.8333 124.5,85.5C 125.5,85.5 126.5,85.5 127.5,85.5C 127.5,86.5 127.5,87.5 127.5,88.5C 126.5,88.5 125.5,88.5 124.5,88.5C 124.39,92.6101 125.39,96.2767 127.5,99.5C 125.473,99.6621 123.473,99.4955 121.5,99C 120.874,98.2496 120.374,97.4162 120,96.5C 119.866,93.1277 119.032,89.961 117.5,87C 119.003,85.0786 119.669,82.912 119.5,80.5 Z"/></g>
<g><path style="opacity:1" fill="#f5774d" d="M 77.5,84.5 C 76.5,84.5 75.5,84.5 74.5,84.5C 74.5,85.5 74.5,86.5 74.5,87.5C 70.6076,88.7423 69.6076,91.2423 71.5,95C 72.448,95.4828 73.448,95.6495 74.5,95.5C 74.5,99.1667 74.5,102.833 74.5,106.5C 71.4534,103.455 68.7867,100.122 66.5,96.5C 66.5,96.1667 66.5,95.8333 66.5,95.5C 65.4099,86.5872 69.0765,82.9205 77.5,84.5 Z"/></g>
<g><path style="opacity:1" fill="#f8475b" d="M 77.5,84.5 C 80.5616,85.2678 82.2283,87.2678 82.5,90.5C 82.5,91.5 82.5,92.5 82.5,93.5C 81.1015,98.6336 78.4348,102.967 74.5,106.5C 74.5,102.833 74.5,99.1667 74.5,95.5C 76.595,95.2402 77.9283,94.0736 78.5,92C 77.8827,89.7731 76.5494,88.2731 74.5,87.5C 74.5,86.5 74.5,85.5 74.5,84.5C 75.5,84.5 76.5,84.5 77.5,84.5 Z"/></g>
<g><path style="opacity:1" fill="#dd9853" d="M 44.5,83.5 C 45.8699,85.7073 45.2032,87.374 42.5,88.5C 41.4173,87.635 41.2506,86.635 42,85.5C 42.9947,84.9341 43.828,84.2674 44.5,83.5 Z"/></g>
<g><path style="opacity:1" fill="#f0d3b7" d="M 82.5,93.5 C 82.5,92.5 82.5,91.5 82.5,90.5C 85.5321,85.5804 89.8654,84.2471 95.5,86.5C 93.9412,88.1307 91.9412,88.964 89.5,89C 87.3799,90.5227 87.0465,92.3561 88.5,94.5C 90.4233,95.3078 92.4233,95.8078 94.5,96C 95.7112,96.8928 95.7112,97.7261 94.5,98.5C 92.2324,99.5443 89.8991,99.711 87.5,99C 85.5981,97.2703 83.9314,95.437 82.5,93.5 Z"/></g>
<g><path style="opacity:1" fill="#f5d7ba" d="M 101.5,85.5 C 105.924,86.0972 110.257,86.0972 114.5,85.5C 114.5,90.1667 114.5,94.8333 114.5,99.5C 111.311,98.4854 108.144,98.4854 105,99.5C 99.1437,98.131 97.1437,94.4643 99,88.5C 100.045,87.6266 100.878,86.6266 101.5,85.5 Z"/></g>
<g><path style="opacity:1" fill="#f8d9bb" d="M 145.5,88.5 C 145.5,91.8333 145.5,95.1667 145.5,98.5C 144.167,98.5 142.833,98.5 141.5,98.5C 141.665,95.4816 141.498,92.4816 141,89.5C 139.333,88.1667 137.667,88.1667 136,89.5C 135.502,92.4816 135.335,95.4816 135.5,98.5C 134.167,98.5 132.833,98.5 131.5,98.5C 131.5,91.1667 131.5,83.8333 131.5,76.5C 132.833,76.5 134.167,76.5 135.5,76.5C 135.335,79.8499 135.502,83.1832 136,86.5C 138.401,85.3977 140.901,85.231 143.5,86C 144.381,86.7083 145.047,87.5416 145.5,88.5 Z"/></g>
<g><path style="opacity:1" fill="#f0d4b8" d="M 155.5,84.5 C 161.287,84.2043 164.287,86.871 164.5,92.5C 161.167,92.5 157.833,92.5 154.5,92.5C 155.817,96.8788 158.317,97.5455 162,94.5C 162.75,95.1258 163.584,95.6258 164.5,96C 160.142,100.422 155.642,100.589 151,96.5C 148.324,90.8616 149.824,86.8616 155.5,84.5 Z"/></g>
<g><path style="opacity:1" fill="#eed3b7" d="M 168.5,85.5 C 172.399,86.1829 176.399,86.3496 180.5,86C 178.752,87.8701 176.585,89.0368 174,89.5C 173.502,92.8168 173.335,96.1501 173.5,99.5C 171.833,99.5 170.167,99.5 168.5,99.5C 168.5,94.8333 168.5,90.1667 168.5,85.5 Z"/></g>
<g><path style="opacity:1" fill="#446c71" d="M 74.5,87.5 C 76.5494,88.2731 77.8827,89.7731 78.5,92C 77.9283,94.0736 76.595,95.2402 74.5,95.5C 73.448,95.6495 72.448,95.4828 71.5,95C 69.6076,91.2423 70.6076,88.7423 74.5,87.5 Z"/></g>
<g><path style="opacity:1" fill="#3e7076" d="M 104.5,88.5 C 110.016,88.4734 111.349,90.64 108.5,95C 102.681,95.5262 101.348,93.3595 104.5,88.5 Z"/></g>
<g><path style="opacity:1" fill="#407176" d="M 154.5,88.5 C 156.604,88.2011 158.604,88.5344 160.5,89.5C 159.5,89.8333 158.5,90.1667 157.5,90.5C 155.97,90.3601 154.97,89.6935 154.5,88.5 Z"/></g>
<g><path style="opacity:1" fill="#95a297" d="M 145.5,88.5 C 146.482,91.9619 146.815,95.6286 146.5,99.5C 144.585,99.7845 142.919,99.4511 141.5,98.5C 142.833,98.5 144.167,98.5 145.5,98.5C 145.5,95.1667 145.5,91.8333 145.5,88.5 Z"/></g>
<g><path style="opacity:1" fill="#5bbfcc" d="M 15.5,89.5 C 23.1739,89.3336 30.8406,89.5003 38.5,90C 41.3127,92.5365 41.146,94.7031 38,96.5C 37.5,96.1667 37,95.8333 36.5,95.5C 37.1667,94.8333 37.8333,94.1667 38.5,93.5C 30.8622,92.5025 23.1955,92.1692 15.5,92.5C 15.5,91.5 15.5,90.5 15.5,89.5 Z"/></g>
<g><path style="opacity:1" fill="#58ccda" d="M 15.5,95.5 C 18.5184,95.3354 21.5184,95.502 24.5,96C 26.087,98.8652 25.4203,101.032 22.5,102.5C 22.1667,102.167 21.8333,101.833 21.5,101.5C 22.1667,100.5 22.8333,99.5 23.5,98.5C 20.3837,98.0799 17.7171,97.0799 15.5,95.5 Z"/></g>
<g><path style="opacity:1" fill="#5bc0cd" d="M 29.5,95.5 C 32.8957,95.6329 33.2291,96.6329 30.5,98.5C 35.456,99.4941 40.456,99.8275 45.5,99.5C 45.5,100.5 45.5,101.5 45.5,102.5C 40.4889,102.666 35.4889,102.499 30.5,102C 28.3162,100.102 27.9829,97.9358 29.5,95.5 Z"/></g>
</svg>
